<?xml version="1.0" encoding="UTF-8" standalone="no"?>
<!DOCTYPE svg PUBLIC "-//W3C//DTD SVG 1.1//EN"
 "http://www.w3.org/Graphics/SVG/1.1/DTD/svg11.dtd">
<!-- Generated by graphviz version 2.26.3 (20100126.1600)
 -->
<!-- Title: G Pages: 1 -->
<svg width="170pt" height="3068pt"
 viewBox="0.00 0.00 170.00 3068.00" xmlns="http://www.w3.org/2000/svg" xmlns:xlink="http://www.w3.org/1999/xlink">
<g id="graph1" class="graph" transform="scale(1 1) rotate(0) translate(4 3064)">
<title>G</title>
<polygon fill="white" stroke="white" points="-4,5 -4,-3064 167,-3064 167,5 -4,5"/>
<g id="graph2" class="cluster"><title>cluster_Global</title>
<polyline fill="none" stroke="gray" points="20,-8 142,-8 "/>
<path fill="none" stroke="gray" d="M142,-8C148,-8 154,-14 154,-20"/>
<polyline fill="none" stroke="gray" points="154,-20 154,-3040 "/>
<path fill="none" stroke="gray" d="M154,-3040C154,-3046 148,-3052 142,-3052"/>
<polyline fill="none" stroke="gray" points="142,-3052 20,-3052 "/>
<path fill="none" stroke="gray" d="M20,-3052C14,-3052 8,-3046 8,-3040"/>
<polyline fill="none" stroke="gray" points="8,-3040 8,-20 "/>
<path fill="none" stroke="gray" d="M8,-20C8,-14 14,-8 20,-8"/>
<text text-anchor="middle" x="81" y="-3038.1" font-family="Times Roman,serif" font-size="11.00" fill="gray">Global</text>
</g>
<!-- \\Login -->
<g id="node2" class="node"><title>\\Login</title>
<polygon fill="none" stroke="black" points="108,-3022 54,-3022 54,-2986 108,-2986 108,-3022"/>
<text text-anchor="middle" x="81" y="-3001.1" font-family="Times Roman,serif" font-size="11.00">Login</text>
</g>
<!-- \\ConsultaModel -->
<g id="node3" class="node"><title>\\ConsultaModel</title>
<polygon fill="none" stroke="black" points="129,-2968 33,-2968 33,-2932 129,-2932 129,-2968"/>
<text text-anchor="middle" x="81" y="-2947.1" font-family="Times Roman,serif" font-size="11.00">ConsultaModel</text>
</g>
<!-- \\Global_var_model -->
<g id="node4" class="node"><title>\\Global_var_model</title>
<polygon fill="none" stroke="black" points="137,-2914 25,-2914 25,-2878 137,-2878 137,-2914"/>
<text text-anchor="middle" x="81" y="-2893.1" font-family="Times Roman,serif" font-size="11.00">Global_var_model</text>
</g>
<!-- \\ModelAdministrador -->
<g id="node5" class="node"><title>\\ModelAdministrador</title>
<polygon fill="none" stroke="black" points="143,-2860 19,-2860 19,-2824 143,-2824 143,-2860"/>
<text text-anchor="middle" x="81" y="-2839.1" font-family="Times Roman,serif" font-size="11.00">ModelAdministrador</text>
</g>
<!-- \\Imagenes -->
<g id="node6" class="node"><title>\\Imagenes</title>
<polygon fill="none" stroke="black" points="116,-2806 46,-2806 46,-2770 116,-2770 116,-2806"/>
<text text-anchor="middle" x="81" y="-2785.1" font-family="Times Roman,serif" font-size="11.00">Imagenes</text>
</g>
<!-- \\ModelServicio -->
<g id="node7" class="node"><title>\\ModelServicio</title>
<polygon fill="none" stroke="black" points="126,-2752 36,-2752 36,-2716 126,-2716 126,-2752"/>
<text text-anchor="middle" x="81" y="-2731.1" font-family="Times Roman,serif" font-size="11.00">ModelServicio</text>
</g>
<!-- \\ModelExperiencia -->
<g id="node8" class="node"><title>\\ModelExperiencia</title>
<polygon fill="none" stroke="black" points="137,-2698 25,-2698 25,-2662 137,-2662 137,-2698"/>
<text text-anchor="middle" x="81" y="-2677.1" font-family="Times Roman,serif" font-size="11.00">ModelExperiencia</text>
</g>
<!-- \\ModelComentario -->
<g id="node9" class="node"><title>\\ModelComentario</title>
<polygon fill="none" stroke="black" points="137,-2644 25,-2644 25,-2608 137,-2608 137,-2644"/>
<text text-anchor="middle" x="81" y="-2623.1" font-family="Times Roman,serif" font-size="11.00">ModelComentario</text>
</g>
<!-- \\Administrador -->
<g id="node10" class="node"><title>\\Administrador</title>
<polygon fill="none" stroke="black" points="127,-2590 35,-2590 35,-2554 127,-2554 127,-2590"/>
<text text-anchor="middle" x="81" y="-2569.1" font-family="Times Roman,serif" font-size="11.00">Administrador</text>
</g>
<!-- \\AdministradorVista -->
<g id="node11" class="node"><title>\\AdministradorVista</title>
<polygon fill="none" stroke="black" points="141,-2536 21,-2536 21,-2500 141,-2500 141,-2536"/>
<text text-anchor="middle" x="81" y="-2515.1" font-family="Times Roman,serif" font-size="11.00">AdministradorVista</text>
</g>
<!-- \\UsuarioModel -->
<g id="node12" class="node"><title>\\UsuarioModel</title>
<polygon fill="none" stroke="black" points="126,-2482 36,-2482 36,-2446 126,-2446 126,-2482"/>
<text text-anchor="middle" x="81" y="-2461.1" font-family="Times Roman,serif" font-size="11.00">UsuarioModel</text>
</g>
<!-- \\GaleriaVista -->
<g id="node13" class="node"><title>\\GaleriaVista</title>
<polygon fill="none" stroke="black" points="122,-2428 40,-2428 40,-2392 122,-2392 122,-2428"/>
<text text-anchor="middle" x="81" y="-2407.1" font-family="Times Roman,serif" font-size="11.00">GaleriaVista</text>
</g>
<!-- \\Comentario -->
<g id="node14" class="node"><title>\\Comentario</title>
<polygon fill="none" stroke="black" points="121,-2374 41,-2374 41,-2338 121,-2338 121,-2374"/>
<text text-anchor="middle" x="81" y="-2353.1" font-family="Times Roman,serif" font-size="11.00">Comentario</text>
</g>
<!-- \\EmpresaModel -->
<g id="node15" class="node"><title>\\EmpresaModel</title>
<polygon fill="none" stroke="black" points="130,-2320 32,-2320 32,-2284 130,-2284 130,-2320"/>
<text text-anchor="middle" x="81" y="-2299.1" font-family="Times Roman,serif" font-size="11.00">EmpresaModel</text>
</g>
<!-- \\Galerias -->
<g id="node16" class="node"><title>\\Galerias</title>
<polygon fill="none" stroke="black" points="111,-2266 51,-2266 51,-2230 111,-2230 111,-2266"/>
<text text-anchor="middle" x="81" y="-2245.1" font-family="Times Roman,serif" font-size="11.00">Galerias</text>
</g>
<!-- \\Usuario -->
<g id="node17" class="node"><title>\\Usuario</title>
<polygon fill="none" stroke="black" points="110,-2212 52,-2212 52,-2176 110,-2176 110,-2212"/>
<text text-anchor="middle" x="81" y="-2191.1" font-family="Times Roman,serif" font-size="11.00">Usuario</text>
</g>
<!-- \\EmpresaVista -->
<g id="node18" class="node"><title>\\EmpresaVista</title>
<polygon fill="none" stroke="black" points="127,-2158 35,-2158 35,-2122 127,-2122 127,-2158"/>
<text text-anchor="middle" x="81" y="-2137.1" font-family="Times Roman,serif" font-size="11.00">EmpresaVista</text>
</g>
<!-- \\ModelImagen -->
<g id="node19" class="node"><title>\\ModelImagen</title>
<polygon fill="none" stroke="black" points="125,-2104 37,-2104 37,-2068 125,-2068 125,-2104"/>
<text text-anchor="middle" x="81" y="-2083.1" font-family="Times Roman,serif" font-size="11.00">ModelImagen</text>
</g>
<!-- \\consulta -->
<g id="node20" class="node"><title>\\consulta</title>
<polygon fill="none" stroke="black" points="112,-2050 50,-2050 50,-2014 112,-2014 112,-2050"/>
<text text-anchor="middle" x="81" y="-2029.1" font-family="Times Roman,serif" font-size="11.00">consulta</text>
</g>
<!-- \\SitioVista -->
<g id="node21" class="node"><title>\\SitioVista</title>
<polygon fill="none" stroke="black" points="114,-1996 48,-1996 48,-1960 114,-1960 114,-1996"/>
<text text-anchor="middle" x="81" y="-1975.1" font-family="Times Roman,serif" font-size="11.00">SitioVista</text>
</g>
<!-- \\Aleatorio -->
<g id="node22" class="node"><title>\\Aleatorio</title>
<polygon fill="none" stroke="black" points="113,-1942 49,-1942 49,-1906 113,-1906 113,-1942"/>
<text text-anchor="middle" x="81" y="-1921.1" font-family="Times Roman,serif" font-size="11.00">Aleatorio</text>
</g>
<!-- \\ImagenModel -->
<g id="node23" class="node"><title>\\ImagenModel</title>
<polygon fill="none" stroke="black" points="125,-1888 37,-1888 37,-1852 125,-1852 125,-1888"/>
<text text-anchor="middle" x="81" y="-1867.1" font-family="Times Roman,serif" font-size="11.00">ImagenModel</text>
</g>
<!-- \\Experiencia -->
<g id="node24" class="node"><title>\\Experiencia</title>
<polygon fill="none" stroke="black" points="121,-1834 41,-1834 41,-1798 121,-1798 121,-1834"/>
<text text-anchor="middle" x="81" y="-1813.1" font-family="Times Roman,serif" font-size="11.00">Experiencia</text>
</g>
<!-- \\GaleriaModel -->
<g id="node25" class="node"><title>\\GaleriaModel</title>
<polygon fill="none" stroke="black" points="124,-1780 38,-1780 38,-1744 124,-1744 124,-1780"/>
<text text-anchor="middle" x="81" y="-1759.1" font-family="Times Roman,serif" font-size="11.00">GaleriaModel</text>
</g>
<!-- \\LoginModel -->
<g id="node26" class="node"><title>\\LoginModel</title>
<polygon fill="none" stroke="black" points="119,-1726 43,-1726 43,-1690 119,-1690 119,-1726"/>
<text text-anchor="middle" x="81" y="-1705.1" font-family="Times Roman,serif" font-size="11.00">LoginModel</text>
</g>
<!-- \\Usuarios -->
<g id="node27" class="node"><title>\\Usuarios</title>
<polygon fill="none" stroke="black" points="113,-1672 49,-1672 49,-1636 113,-1636 113,-1672"/>
<text text-anchor="middle" x="81" y="-1651.1" font-family="Times Roman,serif" font-size="11.00">Usuarios</text>
</g>
<!-- \\Neo4Play -->
<g id="node28" class="node"><title>\\Neo4Play</title>
<polygon fill="none" stroke="black" points="115,-1618 47,-1618 47,-1582 115,-1582 115,-1618"/>
<text text-anchor="middle" x="81" y="-1597.1" font-family="Times Roman,serif" font-size="11.00">Neo4Play</text>
</g>
<!-- \\ModelIndex -->
<g id="node29" class="node"><title>\\ModelIndex</title>
<polygon fill="none" stroke="black" points="120,-1564 42,-1564 42,-1528 120,-1528 120,-1564"/>
<text text-anchor="middle" x="81" y="-1543.1" font-family="Times Roman,serif" font-size="11.00">ModelIndex</text>
</g>
<!-- \\Validar -->
<g id="node30" class="node"><title>\\Validar</title>
<polygon fill="none" stroke="black" points="108,-1510 54,-1510 54,-1474 108,-1474 108,-1510"/>
<text text-anchor="middle" x="81" y="-1489.1" font-family="Times Roman,serif" font-size="11.00">Validar</text>
</g>
<!-- \\LoginVista -->
<g id="node31" class="node"><title>\\LoginVista</title>
<polygon fill="none" stroke="black" points="117,-1456 45,-1456 45,-1420 117,-1420 117,-1456"/>
<text text-anchor="middle" x="81" y="-1435.1" font-family="Times Roman,serif" font-size="11.00">LoginVista</text>
</g>
<!-- \\Departamento -->
<g id="node32" class="node"><title>\\Departamento</title>
<polygon fill="none" stroke="black" points="129,-1402 33,-1402 33,-1366 129,-1366 129,-1402"/>
<text text-anchor="middle" x="81" y="-1381.1" font-family="Times Roman,serif" font-size="11.00">Departamento</text>
</g>
<!-- \\Publicacion -->
<g id="node33" class="node"><title>\\Publicacion</title>
<polygon fill="none" stroke="black" points="119,-1348 43,-1348 43,-1312 119,-1312 119,-1348"/>
<text text-anchor="middle" x="81" y="-1327.1" font-family="Times Roman,serif" font-size="11.00">Publicacion</text>
</g>
<!-- \\ImagenVista -->
<g id="node34" class="node"><title>\\ImagenVista</title>
<polygon fill="none" stroke="black" points="123,-1294 39,-1294 39,-1258 123,-1258 123,-1294"/>
<text text-anchor="middle" x="81" y="-1273.1" font-family="Times Roman,serif" font-size="11.00">ImagenVista</text>
</g>
<!-- \\IndexControl -->
<g id="node35" class="node"><title>\\IndexControl</title>
<polygon fill="none" stroke="black" points="124,-1240 38,-1240 38,-1204 124,-1204 124,-1240"/>
<text text-anchor="middle" x="81" y="-1219.1" font-family="Times Roman,serif" font-size="11.00">IndexControl</text>
</g>
<!-- \\ModelPublicacion -->
<g id="node36" class="node"><title>\\ModelPublicacion</title>
<polygon fill="none" stroke="black" points="135,-1186 27,-1186 27,-1150 135,-1150 135,-1186"/>
<text text-anchor="middle" x="81" y="-1165.1" font-family="Times Roman,serif" font-size="11.00">ModelPublicacion</text>
</g>
<!-- \\UsuarioVista -->
<g id="node37" class="node"><title>\\UsuarioVista</title>
<polygon fill="none" stroke="black" points="123,-1132 39,-1132 39,-1096 123,-1096 123,-1132"/>
<text text-anchor="middle" x="81" y="-1111.1" font-family="Times Roman,serif" font-size="11.00">UsuarioVista</text>
</g>
<!-- \\Servicio -->
<g id="node38" class="node"><title>\\Servicio</title>
<polygon fill="none" stroke="black" points="110,-1078 52,-1078 52,-1042 110,-1042 110,-1078"/>
<text text-anchor="middle" x="81" y="-1057.1" font-family="Times Roman,serif" font-size="11.00">Servicio</text>
</g>
<!-- \\Global_var -->
<g id="node39" class="node"><title>\\Global_var</title>
<polygon fill="none" stroke="black" points="118,-1024 44,-1024 44,-988 118,-988 118,-1024"/>
<text text-anchor="middle" x="81" y="-1003.1" font-family="Times Roman,serif" font-size="11.00">Global_var</text>
</g>
<!-- \\SitioModel -->
<g id="node40" class="node"><title>\\SitioModel</title>
<polygon fill="none" stroke="black" points="117,-970 45,-970 45,-934 117,-934 117,-970"/>
<text text-anchor="middle" x="81" y="-949.1" font-family="Times Roman,serif" font-size="11.00">SitioModel</text>
</g>
<!-- \\AdministradorModel -->
<g id="node41" class="node"><title>\\AdministradorModel</title>
<polygon fill="none" stroke="black" points="143,-916 19,-916 19,-880 143,-880 143,-916"/>
<text text-anchor="middle" x="81" y="-895.1" font-family="Times Roman,serif" font-size="11.00">AdministradorModel</text>
</g>
<!-- \\ModeloRelaciones -->
<g id="node42" class="node"><title>\\ModeloRelaciones</title>
<polygon fill="none" stroke="black" points="137,-862 25,-862 25,-826 137,-826 137,-862"/>
<text text-anchor="middle" x="81" y="-841.1" font-family="Times Roman,serif" font-size="11.00">ModeloRelaciones</text>
</g>
<!-- \\ModelNodos -->
<g id="node43" class="node"><title>\\ModelNodos</title>
<polygon fill="none" stroke="black" points="122,-808 40,-808 40,-772 122,-772 122,-808"/>
<text text-anchor="middle" x="81" y="-787.1" font-family="Times Roman,serif" font-size="11.00">ModelNodos</text>
</g>
<!-- \\ModeloNodo -->
<g id="node44" class="node"><title>\\ModeloNodo</title>
<polygon fill="none" stroke="black" points="123,-754 39,-754 39,-718 123,-718 123,-754"/>
<text text-anchor="middle" x="81" y="-733.1" font-family="Times Roman,serif" font-size="11.00">ModeloNodo</text>
</g>
<!-- \\Conexion -->
<g id="node45" class="node"><title>\\Conexion</title>
<polygon fill="none" stroke="black" points="115,-700 47,-700 47,-664 115,-664 115,-700"/>
<text text-anchor="middle" x="81" y="-679.1" font-family="Times Roman,serif" font-size="11.00">Conexion</text>
</g>
<!-- \\ModelUsuarios -->
<g id="node46" class="node"><title>\\ModelUsuarios</title>
<polygon fill="none" stroke="black" points="129,-646 33,-646 33,-610 129,-610 129,-646"/>
<text text-anchor="middle" x="81" y="-625.1" font-family="Times Roman,serif" font-size="11.00">ModelUsuarios</text>
</g>
<!-- \\Imagen -->
<g id="node47" class="node"><title>\\Imagen</title>
<polygon fill="none" stroke="black" points="109,-592 53,-592 53,-556 109,-556 109,-592"/>
<text text-anchor="middle" x="81" y="-571.1" font-family="Times Roman,serif" font-size="11.00">Imagen</text>
</g>
<!-- \\Sitio -->
<g id="node48" class="node"><title>\\Sitio</title>
<polygon fill="none" stroke="black" points="108,-538 54,-538 54,-502 108,-502 108,-538"/>
<text text-anchor="middle" x="81" y="-517.1" font-family="Times Roman,serif" font-size="11.00">Sitio</text>
</g>
<!-- \\Empresa -->
<g id="node49" class="node"><title>\\Empresa</title>
<polygon fill="none" stroke="black" points="113,-484 49,-484 49,-448 113,-448 113,-484"/>
<text text-anchor="middle" x="81" y="-463.1" font-family="Times Roman,serif" font-size="11.00">Empresa</text>
</g>
<!-- \\Sitios -->
<g id="node50" class="node"><title>\\Sitios</title>
<polygon fill="none" stroke="black" points="108,-430 54,-430 54,-394 108,-394 108,-430"/>
<text text-anchor="middle" x="81" y="-409.1" font-family="Times Roman,serif" font-size="11.00">Sitios</text>
</g>
<!-- \\ModelEmpresa -->
<g id="node51" class="node"><title>\\ModelEmpresa</title>
<polygon fill="none" stroke="black" points="130,-376 32,-376 32,-340 130,-340 130,-376"/>
<text text-anchor="middle" x="81" y="-355.1" font-family="Times Roman,serif" font-size="11.00">ModelEmpresa</text>
</g>
<!-- \\ConsultaVista -->
<g id="node52" class="node"><title>\\ConsultaVista</title>
<polygon fill="none" stroke="black" points="126,-322 36,-322 36,-286 126,-286 126,-322"/>
<text text-anchor="middle" x="81" y="-301.1" font-family="Times Roman,serif" font-size="11.00">ConsultaVista</text>
</g>
<!-- \\Empresas -->
<g id="node53" class="node"><title>\\Empresas</title>
<polygon fill="none" stroke="black" points="116,-268 46,-268 46,-232 116,-232 116,-268"/>
<text text-anchor="middle" x="81" y="-247.1" font-family="Times Roman,serif" font-size="11.00">Empresas</text>
</g>
<!-- \\ModelDepartamento -->
<g id="node54" class="node"><title>\\ModelDepartamento</title>
<polygon fill="none" stroke="black" points="145,-214 17,-214 17,-178 145,-178 145,-214"/>
<text text-anchor="middle" x="81" y="-193.1" font-family="Times Roman,serif" font-size="11.00">ModelDepartamento</text>
</g>
<!-- \\Administradores -->
<g id="node55" class="node"><title>\\Administradores</title>
<polygon fill="none" stroke="black" points="134,-160 28,-160 28,-124 134,-124 134,-160"/>
<text text-anchor="middle" x="81" y="-139.1" font-family="Times Roman,serif" font-size="11.00">Administradores</text>
</g>
<!-- \\IndexVista -->
<g id="node56" class="node"><title>\\IndexVista</title>
<polygon fill="none" stroke="black" points="118,-106 44,-106 44,-70 118,-70 118,-106"/>
<text text-anchor="middle" x="81" y="-85.1" font-family="Times Roman,serif" font-size="11.00">IndexVista</text>
</g>
<!-- \\ModelSitios -->
<g id="node57" class="node"><title>\\ModelSitios</title>
<polygon fill="none" stroke="black" points="120,-52 42,-52 42,-16 120,-16 120,-52"/>
<text text-anchor="middle" x="81" y="-31.1" font-family="Times Roman,serif" font-size="11.00">ModelSitios</text>
</g>
</g>
</svg>
